<?xml version="1.0" encoding="UTF-8" standalone="no"?><!DOCTYPE svg PUBLIC "-//W3C//DTD SVG 1.1//EN" "http://www.w3.org/Graphics/SVG/1.1/DTD/svg11.dtd"><svg width="100%" height="100%" viewBox="0 0 1144 257" version="1.1" xmlns="http://www.w3.org/2000/svg" xmlns:xlink="http://www.w3.org/1999/xlink" xml:space="preserve" xmlns:serif="http://www.serif.com/" style="fill-rule:evenodd;clip-rule:evenodd;stroke-linejoin:round;stroke-miterlimit:2;"><g><path d="M0,205.632l0,-205.632l80.928,0c18.624,0 32.64,4.56 42.048,13.68c9.408,9.12 14.112,21.648 14.112,37.584c0,11.712 -2.496,21.504 -7.488,29.376c-5.76,9.024 -14.016,14.592 -24.768,16.704l0,0.576c12.672,1.152 22.368,6.624 29.088,16.416c5.952,8.448 8.928,18.624 8.928,30.528c0,40.512 -20.64,60.768 -61.92,60.768l-80.928,0Zm53.568,-167.04l0,42.048l12.96,0c5.184,0 9.312,-2.016 12.384,-6.048c3.072,-4.032 4.608,-8.928 4.608,-14.688c0,-5.952 -1.536,-10.992 -4.608,-15.12c-3.072,-4.128 -7.2,-6.192 -12.384,-6.192l-12.96,0Zm0,78.336l0,50.112l14.976,0c5.184,0 9.648,-2.256 13.392,-6.768c3.744,-4.512 5.616,-10.704 5.616,-18.576c0,-7.488 -1.92,-13.632 -5.76,-18.432c-3.648,-4.224 -8.064,-6.336 -13.248,-6.336l-14.976,0Z" style="fill:#fff;fill-rule:nonzero;"/><path d="M289.152,127.872c0,25.152 -3.744,43.872 -11.232,56.16c-10.176,17.088 -28.512,25.632 -55.008,25.632c-27.648,0 -46.272,-8.064 -55.872,-24.192c-6.912,-11.52 -10.368,-30.816 -10.368,-57.888c0,-25.152 3.744,-43.872 11.232,-56.16c10.176,-17.088 28.512,-25.632 55.008,-25.632c27.648,0 46.272,8.064 55.872,24.192c6.912,11.52 10.368,30.816 10.368,57.888Zm-80.64,0c0,16.32 0.192,25.728 0.576,28.224c1.728,13.44 6.336,20.16 13.824,20.16c7.488,0 12.096,-6.72 13.824,-20.16c0.384,-2.688 0.576,-12.096 0.576,-28.224c0,-16.32 -0.192,-25.824 -0.576,-28.512c-1.728,-13.44 -6.336,-20.16 -13.824,-20.16c-7.488,0 -12.096,6.816 -13.824,20.448c-0.384,2.496 -0.576,11.904 -0.576,28.224Z" style="fill:#fff;fill-rule:nonzero;"/><path d="M433.152,127.872c0,25.152 -3.744,43.872 -11.232,56.16c-10.176,17.088 -28.512,25.632 -55.008,25.632c-27.648,0 -46.272,-8.064 -55.872,-24.192c-6.912,-11.52 -10.368,-30.816 -10.368,-57.888c0,-25.152 3.744,-43.872 11.232,-56.16c10.176,-17.088 28.512,-25.632 55.008,-25.632c27.648,0 46.272,8.064 55.872,24.192c6.912,11.52 10.368,30.816 10.368,57.888Zm-80.64,0c0,16.32 0.192,25.728 0.576,28.224c1.728,13.44 6.336,20.16 13.824,20.16c7.488,0 12.096,-6.72 13.824,-20.16c0.384,-2.688 0.576,-12.096 0.576,-28.224c0,-16.32 -0.192,-25.824 -0.576,-28.512c-1.728,-13.44 -6.336,-20.16 -13.824,-20.16c-7.488,0 -12.096,6.816 -13.824,20.448c-0.384,2.496 -0.576,11.904 -0.576,28.224Z" style="fill:#fff;fill-rule:nonzero;"/><path d="M439.488,84.672l0,-34.848l17.28,0l0,-46.08l51.84,0l0,46.08l20.448,0l0,34.848l-20.448,0l0,74.552c0,8.091 4.128,12.136 12.384,12.136l8.064,0l0,34.56c-9.408,1.152 -18.816,1.728 -28.224,1.728c-16.896,0 -28.224,-2.31 -33.984,-6.93c-6.72,-5.388 -10.08,-16.357 -10.08,-32.908l0,-83.138l-17.28,0Z" style="fill:#fff;fill-rule:nonzero;"/><path d="M534.528,157.248l45.504,0c0,6.912 1.296,12.096 3.888,15.552c2.592,3.456 6.192,5.184 10.8,5.184c4.224,0 7.776,-1.2 10.656,-3.6c2.88,-2.4 4.32,-5.616 4.32,-9.648c0,-7.104 -6.528,-12.864 -19.584,-17.28c-19.776,-6.912 -31.776,-11.808 -36,-14.688c-13.056,-8.64 -19.584,-21.408 -19.584,-38.304c0,-14.4 5.088,-25.92 15.264,-34.56c10.944,-9.408 26.496,-14.112 46.656,-14.112c38.976,0 58.464,16.32 58.464,48.96l-44.928,0c0,-11.52 -4.608,-17.28 -13.824,-17.28c-8.832,0 -13.248,4.032 -13.248,12.096c0,6.528 6.528,11.808 19.584,15.84c19.008,5.76 31.008,10.368 36,13.824c13.056,8.256 19.584,21.024 19.584,38.304c0,15.36 -5.472,27.84 -16.416,37.44c-11.52,9.792 -26.88,14.688 -46.08,14.688c-40.704,0 -61.056,-17.472 -61.056,-52.416Z" style="fill:#fff;fill-rule:nonzero;"/><path d="M663.552,84.672l0,-34.848l17.28,0l0,-46.08l51.84,0l0,46.08l20.448,0l0,34.848l-20.448,0l0,74.552c0,8.091 4.128,12.136 12.384,12.136l8.064,0l0,34.56c-9.408,1.152 -18.816,1.728 -28.224,1.728c-16.896,0 -28.224,-2.31 -33.984,-6.93c-6.72,-5.388 -10.08,-16.357 -10.08,-32.908l0,-83.138l-17.28,0Z" style="fill:#fff;fill-rule:nonzero;"/><path d="M762.624,205.632l0,-155.808l50.112,0l0,24.768l0.576,0c2.88,-9.216 7.44,-16.32 13.68,-21.312c6.24,-4.992 13.296,-7.488 21.168,-7.488l8.352,0l0,48.384c-4.032,-0.768 -8.352,-1.152 -12.96,-1.152c-19.392,0 -29.088,9.216 -29.088,27.648l0,84.96l-51.84,0Z" style="fill:#fff;fill-rule:nonzero;"/><path d="M991.584,205.632l-50.112,0c-0.96,-2.88 -2.016,-8.736 -3.168,-17.568c-5.997,14.4 -17.794,21.6 -35.392,21.6c-29.013,0 -43.52,-15.264 -43.52,-45.792c0,-14.592 3.12,-25.632 9.36,-33.12c6.24,-7.488 17.52,-13.152 33.84,-16.992l20.448,-4.896c10.176,-2.496 15.264,-8.16 15.264,-16.992c0,-9.6 -4.416,-14.4 -13.248,-14.4c-5.184,0 -8.88,1.488 -11.088,4.464c-2.208,2.976 -3.408,8.4 -3.6,16.272l-44.928,0c0,-19.776 7.008,-34.08 21.024,-42.912c9.984,-6.336 22.848,-9.504 38.592,-9.504c19.968,0 34.752,3.264 44.352,9.792c11.52,7.872 17.28,21.312 17.28,40.32l0,76.032c0,16.32 1.632,27.552 4.896,33.696Zm-69.408,-30.816c10.752,0 16.128,-8.544 16.128,-25.632l0,-18.72c-1.176,1.536 -3.625,2.784 -7.348,3.744c-5.289,1.536 -8.816,2.688 -10.58,3.456c-7.248,3.264 -10.872,9.984 -10.872,20.16c0,11.328 4.224,16.992 12.672,16.992Z" style="fill:#fff;fill-rule:nonzero;"/><path d="M1010.3,256.32l0,-206.496l50.112,0l0,21.312l0.576,0c6.144,-16.896 17.952,-25.344 35.424,-25.344c17.088,0 29.184,7.008 36.288,21.024c6.912,13.248 10.368,34.656 10.368,64.224c0,52.416 -16.05,78.624 -48.15,78.624c-17.019,0 -27.945,-7.2 -32.778,-21.6l0,68.256l-51.84,0Zm51.84,-128.736c0,14.016 0.288,22.656 0.864,25.92c1.728,11.712 6.24,17.568 13.536,17.568c7.488,0 12.096,-5.856 13.824,-17.568c0.576,-3.264 0.864,-11.904 0.864,-25.92c0,-13.824 -0.288,-22.464 -0.864,-25.92c-1.728,-11.52 -6.336,-17.28 -13.824,-17.28c-7.296,0 -11.808,5.856 -13.536,17.568c-0.576,3.264 -0.864,11.808 -0.864,25.632Z" style="fill:#fff;fill-rule:nonzero;"/></g></svg>