<?xml version="1.0" encoding="UTF-8" standalone="no"?><!DOCTYPE svg PUBLIC "-//W3C//DTD SVG 1.1//EN" "http://www.w3.org/Graphics/SVG/1.1/DTD/svg11.dtd"><svg width="100%" height="100%" viewBox="0 0 113 43" version="1.1" xmlns="http://www.w3.org/2000/svg" xmlns:xlink="http://www.w3.org/1999/xlink" xml:space="preserve" xmlns:serif="http://www.serif.com/" style="fill-rule:evenodd;clip-rule:evenodd;stroke-linejoin:round;stroke-miterlimit:2;"><g><path id="path2999" d="M0,0l33.209,0l0,13.888l-19.321,0l0,13.887l19.321,0l0,13.888l-33.209,0l0,-41.663Z" style="fill:#fff;fill-rule:nonzero;"/><path id="path3001" d="M39.851,0l33.21,0l0,12.076l-19.322,0l0,2.415l19.322,0l0,27.776l-33.21,0l0,-12.68l19.322,0l0,-2.416l-19.322,0l0,-27.171Z" style="fill:#fff;fill-rule:nonzero;"/><path id="path3003" d="M79.703,0l33.209,0l0,12.076l-19.322,0l0,2.415l19.322,0l0,27.776l-33.209,0l0,-12.68l19.321,0l0,-2.416l-19.321,0l0,-27.171Z" style="fill:#fff;fill-rule:nonzero;"/></g></svg>