<?xml version="1.0" encoding="UTF-8" standalone="no"?><!DOCTYPE svg PUBLIC "-//W3C//DTD SVG 1.1//EN" "http://www.w3.org/Graphics/SVG/1.1/DTD/svg11.dtd"><svg width="100%" height="100%" viewBox="0 0 113 177" version="1.1" xmlns="http://www.w3.org/2000/svg" xmlns:xlink="http://www.w3.org/1999/xlink" xml:space="preserve" xmlns:serif="http://www.serif.com/" style="fill-rule:evenodd;clip-rule:evenodd;stroke-linejoin:round;stroke-miterlimit:2;"><g><path id="polygon2993" d="M4.06,94.825l2.02,22.541l50.443,0l0,-22.541l-52.463,0Z" style="fill:#fff;fill-rule:nonzero;"/><path id="polygon2995" d="M56.523,49.201l-0.078,0l-56.445,0l2.049,22.541l54.474,0l0,-22.541Z" style="fill:#fff;fill-rule:nonzero;"/><path id="polygon2997" d="M56.523,176.82l0,-23.452l-0.098,0.026l-25.105,-6.779l-1.605,-17.978l-12.199,0l-10.429,0l3.158,35.394l46.175,12.818l0.103,-0.029Z" style="fill:#fff;fill-rule:nonzero;"/><path id="polygon3005" d="M84.203,117.366l-2.617,29.235l-25.141,6.786l0,23.451l46.212,-12.807l0.339,-3.809l5.297,-59.344l0.55,-6.053l4.069,-45.624l-56.467,0l0,22.541l31.764,0l-2.052,23.083l-29.712,0l0,22.541l27.758,0Z" style="fill:#fff;fill-rule:nonzero;"/><path id="path2999" d="M0,0l33.209,0l0,13.888l-19.321,0l0,13.887l19.321,0l0,13.888l-33.209,0l0,-41.663Z" style="fill:#fff;fill-rule:nonzero;"/><path id="path3001" d="M39.851,0l33.21,0l0,12.076l-19.322,0l0,2.415l19.322,0l0,27.776l-33.21,0l0,-12.68l19.322,0l0,-2.416l-19.322,0l0,-27.171Z" style="fill:#fff;fill-rule:nonzero;"/><path id="path3003" d="M79.703,0l33.209,0l0,12.076l-19.322,0l0,2.415l19.322,0l0,27.776l-33.209,0l0,-12.68l19.321,0l0,-2.416l-19.321,0l0,-27.171Z" style="fill:#fff;fill-rule:nonzero;"/></g></svg>