<?xml version="1.0" encoding="UTF-8" standalone="no"?><!DOCTYPE svg PUBLIC "-//W3C//DTD SVG 1.1//EN" "http://www.w3.org/Graphics/SVG/1.1/DTD/svg11.dtd"><svg width="100%" height="100%" viewBox="0 0 219 207" version="1.1" xmlns="http://www.w3.org/2000/svg" xmlns:xlink="http://www.w3.org/1999/xlink" xml:space="preserve" xmlns:serif="http://www.serif.com/" style="fill-rule:evenodd;clip-rule:evenodd;stroke-linejoin:round;stroke-miterlimit:2;"><g><path d="M162.36,176.348c-1.847,1.836 -2.321,4.11 -0.152,6.293c1.635,1.645 3.677,1.885 5.894,-0.318c1.878,-1.868 2.054,-4.244 0.317,-5.991c-1.969,-1.98 -4.146,-1.887 -6.059,0.016Zm11.628,19.084c0.096,0.971 0.227,1.974 0.895,2.647c1.335,1.342 3.448,0.044 5.799,-2.293c1.947,-1.935 4.464,-4.709 2.665,-6.52c-1.07,-1.076 -2.412,0.126 -4.125,1.628l-5.234,4.538Zm-5.282,-25.191c1.371,0.172 3.078,0.612 4.614,2.156c3.704,3.727 2.952,8.813 -1.278,13.018c-1.075,1.069 -2.182,1.903 -2.952,2.335l0.659,2.881l3.491,-3.069c6.177,-5.405 9.768,-8.639 14.205,-4.176c3.839,3.863 2.617,9.414 -3.225,15.222c-6.077,6.041 -9.93,6.799 -12.566,4.147c-1.502,-1.511 -1.63,-2.983 -1.558,-5.261c-1.574,0.633 -2.777,0.161 -3.679,-0.746c-0.734,-0.74 -1.032,-1.777 -1.062,-3.018c-0.029,-1.237 0.007,-2.543 0.079,-4.083c-2.446,0.829 -5.425,0.319 -7.895,-2.166c-3.837,-3.861 -3.921,-9.049 1.215,-14.155c1.444,-1.435 2.45,-2.171 3.424,-2.736l6.548,-6.509l2.836,2.853l-2.856,3.307Zm2.931,-15.045c-1.914,1.903 -4.124,1.896 -6.027,-0.019c-1.901,-1.912 -1.829,-4.055 0.086,-5.958c1.947,-1.936 4.091,-1.995 5.991,-0.083c1.904,1.914 1.898,4.124 -0.05,6.06Zm15.726,24.484l-2.636,-2.651l1.48,-1.937c0.403,-0.535 0.37,-0.702 -0.131,-1.206l-9.813,-9.872c-0.366,-0.368 -0.701,-0.505 -1.137,-0.269l-2.448,1.163l-2.334,-3.086l6.951,-6.91l13.851,13.934c0.535,0.538 0.633,0.573 1.206,0.138l1.946,-1.467l2.635,2.65l-9.57,9.513Zm21.554,-24.013c-0.744,2.14 -2.225,4.881 -4.14,6.784c-3.995,3.972 -7.106,3.863 -10.879,0.067l-8.744,-8.796c-0.2,-0.201 -0.334,-0.336 -0.603,-0.068l-2.35,2.336l-2.972,-2.989c2.621,-3.274 2.327,-5.919 -0.942,-9.946l3.191,-3.171l4.74,4.769c0.233,0.234 0.334,0.336 0.603,0.068l4.734,-4.705l3.337,3.357l-5.003,4.973l7.977,8.024c1.969,1.981 3.207,2.285 5.019,0.484c0.941,-0.936 1.681,-2.137 2.186,-3.24l3.845,2.053" style="fill:#fff;fill-rule:nonzero;"/><path d="M200.383,93.02l-89.172,-89.167c-2.466,-2.466 -5.814,-3.853 -9.301,-3.853c-3.487,0 -6.835,1.387 -9.3,3.853l-18.517,18.519l23.49,23.487c5.623,-1.913 11.871,-0.457 16.07,3.744c4.222,4.228 5.667,10.522 3.711,16.168l22.635,22.638c5.476,-1.886 11.797,-0.665 16.17,3.715c2.935,2.933 4.585,6.917 4.585,11.066c0,4.15 -1.65,8.133 -4.585,11.066c-2.935,2.937 -6.92,4.589 -11.072,4.589c-8.586,0 -15.651,-7.064 -15.651,-15.65c0,-2.045 0.401,-4.071 1.18,-5.962l-21.11,-21.11l-0.002,55.555c1.53,0.757 2.928,1.756 4.139,2.96c2.935,2.934 4.585,6.918 4.585,11.068c0,4.15 -1.65,8.134 -4.585,11.068c-6.115,6.115 -16.026,6.115 -22.132,0c-2.936,-2.934 -4.588,-6.92 -4.588,-11.071c0,-6.336 3.848,-12.074 9.71,-14.479l0,-56.073c-1.919,-0.784 -3.661,-1.946 -5.122,-3.416c-4.632,-4.626 -5.745,-11.422 -3.372,-17.11l-23.154,-23.157l-61.141,61.137c-2.467,2.467 -3.854,5.816 -3.854,9.304c0,3.488 1.387,6.837 3.854,9.303l89.172,89.168c5.102,5.101 13.498,5.101 18.601,0l88.756,-88.752c5.102,-5.105 5.102,-13.503 0,-18.608" style="fill:#fff;fill-rule:nonzero;"/></g></svg>