<?xml version="1.0" encoding="UTF-8" standalone="no"?><!DOCTYPE svg PUBLIC "-//W3C//DTD SVG 1.1//EN" "http://www.w3.org/Graphics/SVG/1.1/DTD/svg11.dtd"><svg width="100%" height="100%" viewBox="0 0 113 27" version="1.1" xmlns="http://www.w3.org/2000/svg" xmlns:xlink="http://www.w3.org/1999/xlink" xml:space="preserve" xmlns:serif="http://www.serif.com/" style="fill-rule:evenodd;clip-rule:evenodd;stroke-linejoin:round;stroke-miterlimit:2;"><path d="M0,0l8.781,0l0,8.705l8.094,0l0,-8.705l8.782,0l0,26.344l-8.782,0l0,-8.781l-8.017,0l0,8.781l-8.858,0m37.263,-17.563l-7.75,0l0,-8.781l24.32,0l0,8.781l-7.788,0l0,17.563l-8.782,0m20.426,-26.344l9.202,0l5.65,9.278l5.651,-9.278l9.201,0l0,26.344l-8.781,0l0,-13.057l-6.147,9.468l-6.147,-9.468l0,13.057l-8.629,0m34.057,-26.344l8.781,0l0,17.639l12.447,0l0,8.705l-21.228,0" style="fill:#fff;fill-rule:nonzero;"/></svg>