<?xml version="1.0" encoding="UTF-8" standalone="no"?><!DOCTYPE svg PUBLIC "-//W3C//DTD SVG 1.1//EN" "http://www.w3.org/Graphics/SVG/1.1/DTD/svg11.dtd"><svg width="100%" height="100%" viewBox="0 0 141 205" version="1.1" xmlns="http://www.w3.org/2000/svg" xmlns:xlink="http://www.w3.org/1999/xlink" xml:space="preserve" xmlns:serif="http://www.serif.com/" style="fill-rule:evenodd;clip-rule:evenodd;stroke-linejoin:round;stroke-miterlimit:2;"><g><g><path d="M0,44.944l70.563,0l0,28.101l-39.738,0l2.6,28.783l37.138,0l0,28.039l-62.888,0m1.238,14.113l28.225,0l1.981,22.469l31.444,8.418l0,29.339l-57.688,-16.093" style="fill:#fff;fill-rule:nonzero;"/><path d="M140.879,44.944l-70.44,0l0,28.101l67.84,0m-2.538,28.783l-65.302,0l0,28.101l34.663,0l-3.281,36.52l-31.382,8.418l0,29.215l57.565,-15.969" style="fill:#fff;fill-rule:nonzero;"/><path d="M0,0l10.95,0l0,10.855l10.094,0l0,-10.855l10.95,0l0,32.851l-10.95,0l0,-10.95l-9.998,0l0,10.95l-11.046,0m46.468,-21.901l-9.665,0l0,-10.95l30.327,0l0,10.95l-9.712,0l0,21.901l-10.95,0m25.471,-32.851l11.474,0l7.046,11.569l7.047,-11.569l11.474,0l0,32.851l-10.951,0l0,-16.283l-7.665,11.808l-7.665,-11.808l0,16.283l-10.76,0m42.468,-32.851l10.951,0l0,21.996l15.521,0l0,10.855l-26.472,0" style="fill:#fff;fill-rule:nonzero;"/></g></g></svg>